<svg width="54" height="48" viewBox="0 0 54 48" fill="none" xmlns="http://www.w3.org/2000/svg">
<path d="M35.1744 0.880802L36.3464 1.12647C41.1824 2.13994 45.3861 4.69979 48.3483 8.24432C48.8317 8.82288 48.6691 9.65709 48.0304 10.0801L30.3315 21.8003C28.1309 23.2574 25.2023 23.2574 23.0019 21.8003L5.30291 10.0801C4.66421 9.65712 4.50165 8.82291 4.98517 8.24432C7.94731 4.69981 12.1509 2.13995 16.9868 1.12647L18.1591 0.8808C23.7629 -0.2936 29.5704 -0.2936 35.1744 0.880802ZM1.47811 14.4318C1.32141 14.8862 1.18121 15.3479 1.0582 15.8165C-0.352733 21.1905 -0.352733 26.8096 1.0582 32.1835C2.99043 39.5429 9.16048 45.2333 16.9868 46.8736L18.1591 47.1192C23.7629 48.2936 29.5704 48.2936 35.1744 47.1192L36.3464 46.8736C44.1728 45.2333 50.3429 39.5429 52.2752 32.1835C53.6861 26.8096 53.6861 21.1906 52.2752 15.8165C52.152 15.348 52.012 14.8862 51.8552 14.4317C51.5747 13.6181 50.5416 13.3368 49.8003 13.8275L32.7744 25.102C29.1072 27.5304 24.2261 27.5304 20.5587 25.102L3.53296 13.8276C2.79181 13.3368 1.75869 13.6182 1.47811 14.4318Z" fill="#F1F1F1"/>
</svg>
