<svg width="46" height="48" viewBox="0 0 46 48" fill="none" xmlns="http://www.w3.org/2000/svg">
<path d="M13.0229 0C12.0242 0 11.2147 0.830744 11.2147 1.85552V3.81069C6.05955 6.36619 2.20652 11.1978 0.865614 17.0639C-0.288538 22.1129 -0.288538 27.3675 0.865614 32.4165C2.53236 39.7083 8.08045 45.4013 15.1861 47.1117C20.1063 48.296 25.227 48.296 30.1472 47.1117C37.2528 45.4013 42.8011 39.708 44.4677 32.4165C45.6219 27.3675 45.6219 22.1129 44.4677 17.0639C43.1269 11.1978 39.2739 6.36619 34.1187 3.81069V1.85552C34.1187 0.830744 33.3091 0 32.3104 0C31.3117 0 30.5021 0.830744 30.5021 1.85552V2.45785C30.3843 2.42705 30.2661 2.39736 30.1472 2.36877C25.227 1.18443 20.1063 1.18443 15.186 2.36878C15.0673 2.39736 14.949 2.42706 14.8311 2.45785V1.85552C14.8311 0.830744 14.0215 0 13.0229 0ZM15.4338 23.2558H29.8995C30.6984 23.2558 31.3459 23.9204 31.3459 24.7403C31.3459 25.5601 30.6984 26.2247 29.8995 26.2247H15.4338C14.6349 26.2247 13.9872 25.5601 13.9872 24.7403C13.9872 23.9204 14.6349 23.2558 15.4338 23.2558ZM15.4338 30.6779H22.6666C23.4655 30.6779 24.1132 31.3424 24.1132 32.1624C24.1132 32.9821 23.4655 33.6467 22.6666 33.6467H15.4338C14.6349 33.6467 13.9872 32.9821 13.9872 32.1624C13.9872 31.3424 14.6349 30.6779 15.4338 30.6779Z" fill="#F1F1F1"/>
</svg>
